<?xml version="1.0" standalone="no"?>
<!DOCTYPE svg PUBLIC "-//W3C//DTD SVG 20010904//EN"
 "http://www.w3.org/TR/2001/REC-SVG-20010904/DTD/svg10.dtd">
<svg version="1.0" xmlns="http://www.w3.org/2000/svg"
 width="512.000000pt" height="458.000000pt" viewBox="0 0 512.000000 458.000000"
 preserveAspectRatio="xMidYMid meet">
<metadata>
Created by potrace 1.16, written by Peter Selinger 2001-2019
</metadata>
<g transform="translate(0.000000,458.000000) scale(0.100000,-0.100000)"
fill="#000000" stroke="none">
<path d="M0 2290 l0 -2290 2560 0 2560 0 0 2290 0 2290 -2560 0 -2560 0 0
-2290z m1665 2045 c315 -84 594 -330 763 -669 51 -103 82 -136 126 -136 49 0
88 31 121 96 71 142 232 352 350 456 388 342 928 382 1350 98 289 -193 472
-493 526 -860 26 -180 -7 -478 -70 -638 -12 -29 -30 -73 -40 -99 -48 -119
-168 -303 -295 -452 l-69 -81 -497 0 -496 0 -53 88 c-29 48 -78 128 -108 177
-31 50 -88 144 -128 210 -40 66 -96 158 -125 205 -29 47 -85 139 -125 205 -40
66 -96 158 -125 205 -29 47 -64 104 -78 128 -38 66 -104 91 -156 57 -38 -25
-25 22 -236 -855 -131 -546 -156 -651 -191 -784 -6 -21 -12 -36 -15 -33 -2 2
-22 82 -44 176 -21 95 -44 179 -50 186 -26 32 -88 35 -692 35 l-606 0 -80 93
c-150 175 -284 402 -340 577 -54 165 -66 246 -66 440 -1 170 1 194 27 299 105
426 450 775 867 875 150 36 141 35 305 31 125 -2 167 -7 250 -30z m994 -1394
c12 -16 21 -32 21 -35 0 -4 20 -37 44 -74 24 -37 82 -130 128 -207 47 -77 143
-234 213 -350 71 -115 154 -253 187 -306 35 -58 68 -100 83 -107 19 -9 148
-12 445 -12 231 0 420 -4 420 -9 0 -16 -274 -244 -484 -402 -33 -24 -76 -57
-97 -74 -22 -16 -83 -64 -136 -105 -471 -362 -703 -584 -858 -823 -28 -42 -56
-77 -62 -77 -7 0 -20 15 -29 33 -40 78 -209 285 -328 402 -156 155 -472 412
-790 645 -191 140 -486 384 -486 401 0 5 205 9 455 9 l455 0 5 -23 c3 -12 18
-78 34 -147 16 -69 37 -163 45 -210 9 -47 30 -145 47 -218 26 -109 36 -136 57
-152 34 -28 94 -26 126 3 26 23 25 18 167 607 22 91 58 237 79 325 22 88 59
243 84 345 25 102 63 259 85 350 22 91 43 182 47 203 8 45 16 46 43 8z"/>
</g>
</svg>
